<svg xmlns="http://www.w3.org/2000/svg" viewBox="0 0 192 192"><path d="M148 140h12v8h-12v12h-8v-12h-12v-8h12v-12h8v12zm28 4c0 17.645-14.355 32-32 32s-32-14.355-32-32 14.355-32 32-32 32 14.355 32 32zm-8 0c0-13.234-10.766-24-24-24s-24 10.766-24 24 10.766 24 24 24 24-10.766 24-24zM44 128h63.35a40.024 40.024 0 0 1 4.672-8H44c-3.55 0-6.711-2.378-7.703-5.828L24.25 74A8.037 8.037 0 0 1 24 72c0-4.411 3.589-8 8-8h104.515l-12.623 45.443a39.764 39.764 0 0 1 9.408-3.978l14.564-52.43c.458-1.709 1.847-3.295 3.812-4.352 2.294-1.235 4.998-1.576 7.059-.888l12 4 2.53-7.59-12-4c-4.143-1.38-9.145-.846-13.38 1.433-3.955 2.128-6.707 5.44-7.739 9.291L138.737 56H32c-8.822 0-16 7.178-16 16 0 1.39.18 2.77.532 4.104l12.09 40.322C30.58 123.24 36.902 128 44 128zm61.825 28H63.473C61.69 162.89 55.44 168 48 168c-8.822 0-16-7.178-16-16s7.178-16 16-16c7.439 0 13.69 5.11 15.473 12H104.2c.279 3.052 1.016 6.13 1.625 8zM56 152c0-4.411-3.589-8-8-8s-8 3.589-8 8 3.589 8 8 8 8-3.589 8-8z"/></svg>